<svg width="300" height="196" viewBox="0 0 300 196" fill="none" xmlns="http://www.w3.org/2000/svg">
<g clip-path="url(#clip0_128_2)">
<path d="M83.5175 170.105L66.582 171.946L58.4824 166.424L53.7935 171.946L56.0442 183.599L58.6213 192.803L74.2482 184.866L86.831 183.727L83.5175 170.105Z" fill="#A0616A"/>
<path d="M169.299 150.593L128.433 149.856L78.7312 170.842L85.3581 185.2L130.274 172.682L199.857 192.563L190.284 145.438L169.299 150.593Z" fill="#2F2E41"/>
<path d="M57.2091 171.447L65.3316 170.815L55.0001 148.989C55.0001 148.989 50.214 147.299 49.4777 152.562C48.7414 157.825 55.0218 193.461 56.8626 193.461C58.7034 193.461 64.8799 189.857 64.8799 189.857L55.7365 172.552L57.2091 171.447L57.2091 171.447L57.2091 171.447Z" fill="#2F2E41"/>
<path d="M260.935 165.471C260.117 165.559 259.225 165.691 258.277 165.884C254.254 166.703 254.171 169.435 254.206 170.061L254.179 170.044C253.774 170.693 253.521 171.35 253.368 171.969L253.183 163.598C253.303 163.349 253.411 163.068 253.501 162.779C253.802 163.706 254.296 164.582 254.721 164.524C255.275 164.449 255.516 162.821 255.413 161.664C256.116 162.57 257.3 163.539 257.747 163.24C258.104 163.002 257.892 162.019 257.503 161.125C258.315 161.614 259.214 161.936 259.493 161.625C259.874 161.201 258.961 159.755 258.12 158.947C259.246 159.052 260.679 158.873 260.773 158.36C260.85 157.938 259.997 157.405 259.085 157.062C260.002 156.82 260.859 156.399 260.83 155.982C260.796 155.488 259.524 155.156 258.426 155.105C259.254 154.458 260.015 153.562 259.782 153.157C259.568 152.785 258.573 152.929 257.655 153.257C258.199 152.48 258.58 151.605 258.29 151.305C257.927 150.932 256.641 151.576 255.763 152.288C255.934 151.179 255.848 149.779 255.35 149.652C254.934 149.546 254.344 150.361 253.94 151.248C253.761 150.317 253.4 149.433 252.982 149.433C252.387 149.433 251.905 151.227 251.905 152.395C251.905 152.461 251.907 152.523 251.91 152.583C251.85 152.513 251.782 152.441 251.703 152.365C250.865 151.551 249.243 150.648 248.828 151.074C248.537 151.374 248.919 152.249 249.463 153.026C248.545 152.698 247.549 152.554 247.336 152.926C247.048 153.427 248.277 154.676 249.275 155.281C249.215 155.274 249.152 155.268 249.085 155.263C247.919 155.184 246.097 155.543 246.057 156.136C246.028 156.553 246.886 156.974 247.802 157.216C246.89 157.559 246.037 158.092 246.114 158.514C246.208 159.027 247.641 159.206 248.767 159.101C247.926 159.909 247.013 161.355 247.394 161.779C247.673 162.089 248.572 161.768 249.384 161.279C248.995 162.172 248.783 163.155 249.14 163.394C249.612 163.71 250.905 162.612 251.587 161.667C251.518 162.823 251.795 164.411 252.343 164.473C252.573 164.5 252.816 164.255 253.036 163.878L252.414 172.876C252.269 173.924 253.198 174.608 253.281 175.04L253.415 181.133C253.264 180.699 253.06 180.255 252.785 179.814L252.758 179.832C252.793 179.205 252.71 176.474 248.687 175.655C247.739 175.462 246.847 175.33 246.029 175.242C245.064 175.138 244.688 176.459 245.559 176.886C246.822 177.504 248.01 178.282 248.629 179.204C250.211 181.561 252.398 180.199 252.709 179.987C253.056 180.565 253.284 181.148 253.428 181.702L253.499 184.938C253.482 185.014 253.47 185.057 253.469 185.06L253.502 185.07L253.674 192.902L255.273 192.889L254.701 184.884C254.797 184.452 255.093 182.981 254.701 181.453L254.129 175.164C254.128 175.159 254.162 175.329 254.129 175.164L253.383 172.692C253.492 171.928 253.744 171.068 254.255 170.217C254.566 170.428 256.753 171.791 258.335 169.434C258.954 168.512 260.142 167.733 261.405 167.115C262.276 166.688 261.9 165.367 260.935 165.471H260.935H260.935ZM253.632 184L253.602 182.631C253.663 183.149 253.66 183.616 253.632 184Z" fill="#F2F2F2"/>
<path d="M0 192.754C0 193.131 0.303065 193.434 0.680462 193.434H299.32C299.697 193.434 300 193.131 300 192.754C300 192.377 299.697 192.073 299.32 192.073H0.680462C0.303065 192.073 0 192.377 0 192.754Z" fill="#3F3D56"/>
<path d="M224.892 67.3879C221.837 66.2324 222.02 64.4824 217.897 62.2336C216.129 61.2693 214.717 60.4996 212.743 60.3928C209.258 60.2044 206.603 62.2194 204.643 63.7063C201.79 65.8711 200.279 68.3 199.489 69.5969C198.164 71.7722 197.552 73.5873 196.912 75.4875C195.97 78.2825 195.609 80.375 195.071 83.587C194.267 88.3809 193.865 90.7778 194.335 92.7911C195.205 96.5241 197.119 96.7832 196.912 99.0499C196.561 102.879 190.997 103.234 190.285 107.149C189.694 110.397 192.766 114.306 196.175 115.617C198.244 116.413 200.149 116.141 205.379 114.513C219.253 110.192 221.48 107.236 225.996 108.622C228.565 109.41 229.97 111.019 233.728 111.199C236.131 111.315 239.03 110.824 239.25 109.727C239.53 108.331 235.162 107.512 234.832 104.94C234.486 102.242 239.04 101.15 239.25 97.9454C239.456 94.8064 235.182 94.3717 232.992 89.4776C231.89 87.016 232.012 83.6641 232.255 76.9601C232.443 71.7867 232.945 69.7853 231.519 68.4924C229.915 67.0375 228.289 68.6729 224.892 67.3879H224.892V67.3879Z" fill="#2F2E41"/>
<path d="M198.155 101.498L202.205 87.8763L213.986 87.5082L218.772 104.444L198.155 101.498Z" fill="#A0616A"/>
<path opacity="0.1" d="M198.155 101.498L202.205 87.8763L213.986 87.5082L218.772 104.444L198.155 101.498Z" fill="black"/>
<path d="M216.24 99.6021L197.096 98.8657L191.16 111.071L182.001 165.135L230.046 175.996C230.046 175.996 232.992 115.617 226.365 107.149C219.738 98.6816 216.24 99.6021 216.24 99.6021H216.24V99.6021Z" fill="#E6E6E6"/>
<path d="M206.744 94.2746C214.607 94.2746 220.981 87.9003 220.981 80.0372C220.981 72.1741 214.607 65.7998 206.744 65.7998C198.88 65.7998 192.506 72.1741 192.506 80.0372C192.506 87.9003 198.88 94.2746 206.744 94.2746Z" fill="#A0616A"/>
<path d="M213.249 91.9261C213.966 91.1857 217.037 90.3895 216.105 88.5279C215.799 87.9166 215.008 87.4993 214.364 87.58C213.142 87.7329 212.817 89.629 212.276 89.5569C211.561 89.4616 211.358 86.0544 211.271 82.3937C211.13 76.4443 211.437 75.8215 210.676 74.9083C209.975 74.0677 209.466 74.2973 201.622 73.0934C198.974 72.687 198.111 72.5195 196.826 72.8955C194.382 73.6106 193.465 75.3971 192.501 74.978C191.573 74.5743 191.35 72.451 191.881 70.8263C192.64 68.5055 194.893 67.3378 196.466 66.5503C200.482 64.5397 203.392 65.1935 203.846 63.7178C204.186 62.612 202.599 62.09 202.451 59.8451C202.293 57.4378 203.962 55.6954 204.068 55.5879C205.117 54.5258 206.321 54.1986 206.844 54.0633C207.577 53.8738 208.437 53.6516 209.447 54.0011C209.649 54.071 210.895 54.5228 211.467 55.7236C212.013 56.8695 211.522 57.8074 211.938 58.0039C212.41 58.2268 213.014 57.0045 214.714 56.4793C215.073 56.3684 215.577 56.2182 216.22 56.287C217.57 56.4314 218.42 57.421 218.649 57.6873C219.243 58.3782 219.431 59.0587 219.808 60.4199C220.002 61.1204 220.225 61.9495 220.236 63.0658C220.243 63.8152 220.249 64.497 219.976 65.2594C219.976 65.2594 219.531 66.4994 216.983 68.612C216.983 68.6119 218.05 67.5534 218.576 67.6886C219.475 67.9199 222.965 69.0976 224.68 72.4904C225.455 74.0247 225.96 73.7876 226.57 75.3097C226.713 75.668 227.765 78.4081 226.607 81.246C225.722 83.4166 224.556 83.1651 223.894 85.3732C223.577 86.4286 223.847 86.4764 223.417 89.3948C223.17 91.0724 220.99 89.7375 220.613 90.4535C220.358 90.9373 224.192 105.152 222.109 107.121C220.069 109.05 211.133 94.1137 213.249 91.9261L213.249 91.9261V91.9261Z" fill="#2F2E41"/>
<path d="M160.171 57.2638C159.373 53.0019 156.527 49.9591 153.815 50.4674C151.102 50.9758 149.551 54.8423 150.35 59.1056C150.646 60.8129 151.346 62.4247 152.393 63.8059L156.002 81.8208L163.122 80.3753L159.968 62.3863C160.444 60.7195 160.513 58.963 160.171 57.2638V57.2638Z" fill="#A0616A"/>
<path d="M213.373 104.508L174.274 96.8032L163.287 63.756L150.974 66.6684L163.326 115.488L207.583 121.311L213.373 104.508Z" fill="#E6E6E6"/>
<path d="M153.827 4.32653C153.789 4.3638 153.753 4.40301 153.715 4.44059C147.795 -1.43467 138.259 -1.48636 132.275 4.32431C126.27 10.1579 126.067 19.7344 131.82 25.8172L131.816 25.8208L131.959 25.9683L153.144 47.7807L175.104 26.4527L175.043 26.3898C175.08 26.3546 175.118 26.3221 175.155 26.2864C181.219 20.3968 181.36 10.7065 175.471 4.64245C169.581 -1.4216 159.891 -1.56304 153.827 4.32653H153.827V4.32653Z" fill="#C09585"/>
<path d="M159.066 112.508C158.996 112.577 158.931 112.649 158.861 112.718C147.956 101.897 130.395 101.802 119.373 112.504C108.313 123.248 107.939 140.886 118.535 152.089L118.528 152.096L118.791 152.367L157.809 192.54L198.254 153.259L198.141 153.143C198.209 153.079 198.28 153.019 198.348 152.953C209.516 142.106 209.777 124.259 198.929 113.09C188.082 101.921 170.235 101.661 159.066 112.508L159.066 112.508Z" fill="#C09585"/>
<path d="M227.837 169.369C227.837 169.369 235.2 186.673 227.101 190.722C219.001 194.772 196.816 198.086 191.341 190.722C185.867 183.359 184.026 149.488 184.026 149.488L166.354 174.155L156.414 167.896C156.414 167.896 168.195 126.294 178.135 124.085C188.076 121.876 214.583 148.384 214.583 148.384L227.837 169.369L227.837 169.369V169.369Z" fill="#2F2E41"/>
<path d="M160.831 165.687L153.1 173.419L142.423 178.941L143.528 188.513L163.777 186.304L166.354 181.15L165.618 176.732L167.09 169.737L160.831 165.687Z" fill="#A0616A"/>
<path d="M145.001 184.832L144.368 176.709L122.543 187.041C122.543 187.041 120.853 191.827 126.116 192.563C131.379 193.3 166.354 193.3 166.354 191.459C166.354 189.618 167.311 180.194 167.311 180.194L146.105 186.304L145.001 184.832H145.001H145.001Z" fill="#2F2E41"/>
<path d="M161.09 157.187C156.775 157.615 153.499 160.188 153.771 162.934C154.044 165.68 157.763 167.559 162.079 167.13C163.806 166.982 165.472 166.424 166.938 165.5L185.197 163.456L184.37 156.238L166.176 157.831C164.557 157.213 162.813 156.993 161.09 157.187V157.187Z" fill="#A0616A"/>
<path d="M212.742 108.254L201.698 146.543L167.827 154.642L169.667 167.16L219.369 159.06L228.984 115.47L212.742 108.254Z" fill="#E6E6E6"/>
</g>
<defs>
<clipPath id="clip0_128_2">
<rect width="300" height="195.089" fill="white"/>
</clipPath>
</defs>
</svg>
